<svg width="210" height="91" viewBox="0 0 210 91" fill="none" xmlns="http://www.w3.org/2000/svg">
<path d="M0 23.6506C2.84 23.6506 5.28164 23.6546 7.72252 23.6506C22.4578 23.6271 37.2056 23.9643 51.926 23.4836C69.5787 22.9049 83.6206 36.3063 83.0024 54.6616C82.6682 64.5305 82.9617 64.5477 73.2514 64.5493C56.9517 64.5493 40.6518 64.5417 24.3517 64.5266C18.5558 64.5125 15.942 62.226 15.8872 56.9803C23.8132 56.9803 31.74 56.9803 39.6676 56.9803C50.4907 56.9803 61.3154 56.9066 72.137 57.0383C74.6679 57.0689 75.4661 56.3757 75.4818 53.7803C75.56 40.5797 66.4508 31.1789 53.2806 31.1444C38.4116 31.1052 23.5487 31.1162 8.68277 31.07C3.5451 31.0543 1.483 29.3716 0 23.6506Z" fill="#435EBE"/>
<path d="M7.50269 40.9622H17.1574C29.0206 40.9622 40.8853 40.9003 52.7485 40.9779C58.0153 41.0124 60.3161 43.1656 60.6941 48.3666H56.4736C42.7847 48.3666 29.0965 48.391 15.4075 48.3619C10.5321 48.351 8.31892 46.3797 7.50269 40.9622Z" fill="#25396F"/>
<path d="M171.138 24.4519C168.298 24.4519 165.856 24.4519 163.414 24.4519C148.679 24.4284 133.932 24.7656 119.212 24.2849C101.558 23.7062 87.5169 37.1075 88.1351 55.4629C88.4693 65.3318 88.175 65.3498 97.8861 65.3513C114.186 65.3513 130.486 65.3435 146.786 65.3278C152.582 65.3137 155.196 63.0272 155.25 57.7815H131.47C120.647 57.7815 109.822 57.7078 99.0005 57.8395C96.4697 57.8701 95.6714 57.1769 95.6558 54.5823C95.5775 41.3809 104.686 31.9802 117.857 31.9457C132.726 31.9065 147.589 31.9182 162.455 31.872C167.592 31.8547 169.655 30.172 171.138 24.4519Z" fill="#435EBE"/>
<path d="M203 57.1777H194.977C185.116 57.1777 175.256 57.1165 165.401 57.1941C161.023 57.2286 159.112 59.3818 158.797 64.5829H162.305C173.681 64.5829 185.056 64.6072 196.431 64.5782C200.483 64.5641 202.322 62.5959 203 57.1777Z" fill="#435EBE"/>
<path d="M201.461 24.4653C198.018 24.4653 194.913 24.4653 191.806 24.4653C179.943 24.4653 168.078 24.4041 156.215 24.4817C150.948 24.5162 148.648 26.6694 148.27 31.8705C149.695 31.8705 151.092 31.8705 152.49 31.8705C166.179 31.8705 179.867 31.8948 193.556 31.8657C198.432 31.8548 200.645 29.8843 201.461 24.4653Z" fill="#435EBE"/>
<path d="M63.3676 14.9296C68.5964 10.9636 74.7964 8.48465 81.3138 7.75419V7.80205C82.7866 7.62165 84.2688 7.52842 85.7526 7.52289C87.2367 7.52844 88.7191 7.62167 90.1922 7.80205V7.75419C96.7094 8.48479 102.909 10.9637 108.138 14.9296C112.166 17.983 116.17 16.7519 120.477 17.0593C116.471 9.87366 104.743 1.66323 90.1906 0.21967V0.208662C90.0592 0.195332 89.9293 0.189076 89.7994 0.177315L89.6428 0.164776C89.1514 0.123218 88.6623 0.0863677 88.1755 0.0604919C88.0558 0.054219 87.9345 0.0510489 87.8147 0.0455601C87.3953 0.0267413 86.9766 0.00949651 86.5626 0.00243947C86.295 -0.00304934 86.025 0.00243947 85.7557 0.00243947C85.4865 0.00243947 85.2165 0.00243947 84.9489 0.00243947C84.5333 0.00949651 84.1147 0.0267413 83.6968 0.0455601C83.577 0.0510489 83.4557 0.054219 83.336 0.0604919C82.8492 0.0863677 82.3601 0.123218 81.8687 0.164776L81.7121 0.177315C81.5807 0.189076 81.4508 0.195332 81.3209 0.208662V0.21967C66.7695 1.66323 55.0409 9.87366 51.0349 17.0593C55.3336 16.7488 59.3396 17.9798 63.3676 14.9296Z" fill="#25396F"/>
<path d="M108.777 74.7522C103.445 79.0677 97.0006 81.7801 90.1921 82.5745V82.5423C88.719 82.7216 87.2365 82.813 85.7525 82.816C84.2688 82.813 82.7866 82.7216 81.3137 82.5423V82.5745C74.505 81.7802 68.0606 79.0679 62.7282 74.7522C58.5891 71.415 54.6566 70.6167 49.5275 71.4769C54.8444 80.7506 68.963 90.1984 85.7525 90.1553C102.542 90.1984 116.661 80.7506 121.978 71.4769C116.849 70.6167 112.916 71.415 108.777 74.7522Z" fill="#25396F"/>
<path d="M117.209 50.4846H123.682V54.5714H112.589V34.4259H123.359V38.5127H117.209V42.6873H120.857V46.7734H117.209V50.4846Z" fill="#25396F"/>
<path d="M124.8 45.7359V43.1483H131.744V45.7359H124.8Z" fill="#25396F"/>
<path d="M147.016 38.8005V44.2108C147.009 44.7923 146.888 45.3668 146.659 45.9013C146.431 46.4359 146.099 46.9201 145.684 47.3263C145.268 47.7325 144.777 48.0527 144.238 48.2686C143.699 48.4845 143.123 48.5919 142.543 48.5846H138.276V54.5714H133.659V34.4259H142.545C143.126 34.4189 143.702 34.5266 144.24 34.7427C144.779 34.9588 145.27 35.2791 145.685 35.6853C146.1 36.0916 146.431 36.5757 146.659 37.1102C146.888 37.6447 147.009 38.2191 147.016 38.8005ZM142.366 40.1523C142.366 39.9335 142.322 39.717 142.237 39.5155C142.153 39.314 142.028 39.1315 141.872 38.9787C141.716 38.826 141.531 38.7061 141.328 38.626C141.124 38.546 140.907 38.5075 140.689 38.5127H138.276V44.4986H140.689C140.907 44.5013 141.123 44.461 141.325 44.38C141.527 44.299 141.711 44.1789 141.867 44.0266C142.023 43.8742 142.147 43.6927 142.233 43.4922C142.318 43.2917 142.364 43.0763 142.366 42.8582V40.1523Z" fill="#25396F"/>
<path d="M193.055 47.5779L194.674 54.5714H190.084L188.495 48.4412C188.2 47.5199 187.73 47.0298 186.817 47.0298H185.409V54.5698H180.792V34.4259H185.409V42.9445H186.439C187.351 42.9445 187.822 42.4842 188.117 41.5629L189.675 34.4275H194.236L192.706 42.4255C192.526 43.3681 192.001 44.2096 191.235 44.7857C191.712 45.103 192.119 45.5142 192.432 45.9942C192.745 46.4743 192.957 47.0131 193.055 47.5779Z" fill="#25396F"/>
<path d="M209.944 48.0099V50.1968C209.937 50.7783 209.816 51.3528 209.588 51.8874C209.359 52.422 209.028 52.9063 208.613 53.3125C208.197 53.7188 207.706 54.039 207.167 54.255C206.628 54.471 206.052 54.5785 205.472 54.5714H196.204V34.4259H204.825C206 34.4177 207.13 34.8765 207.969 35.7017C208.807 36.5269 209.285 37.6513 209.297 38.8287V40.6706C209.291 41.3482 209.128 42.0151 208.822 42.6193C208.515 43.2235 208.074 43.7486 207.532 44.1536C208.252 44.5076 208.86 45.0562 209.286 45.7375C209.712 46.4188 209.94 47.2058 209.944 48.0099ZM200.823 42.2255H203.03C203.238 42.247 203.448 42.2254 203.647 42.1621C203.846 42.0987 204.03 41.995 204.188 41.8573C204.345 41.7196 204.472 41.5508 204.562 41.3617C204.651 41.1725 204.701 40.9668 204.707 40.7576V39.8645C204.707 38.9722 203.942 38.5119 203.03 38.5119H200.823V42.2255ZM205.354 47.9495C205.354 47.7308 205.311 47.5142 205.226 47.3127C205.141 47.1111 205.017 46.9286 204.86 46.7757C204.704 46.6229 204.519 46.5029 204.316 46.4228C204.113 46.3427 203.896 46.3041 203.677 46.3092H200.823V50.4822H203.677C203.896 50.4874 204.113 50.4489 204.316 50.3688C204.519 50.2887 204.704 50.1688 204.861 50.0159C205.017 49.8631 205.141 49.6805 205.226 49.4789C205.311 49.2772 205.354 49.0606 205.354 48.8419V47.9495Z" fill="#25396F"/>
<path d="M163.741 48.0099V50.1968C163.734 50.7783 163.613 51.3528 163.384 51.8874C163.156 52.422 162.824 52.9063 162.409 53.3125C161.994 53.7188 161.502 54.039 160.964 54.255C160.425 54.471 159.849 54.5785 159.268 54.5714H150V34.4259H158.621C159.796 34.4177 160.927 34.8765 161.765 35.7017C162.603 36.5269 163.081 37.6513 163.093 38.8287V40.6706C163.087 41.3482 162.924 42.0151 162.618 42.6193C162.312 43.2235 161.87 43.7486 161.328 44.1536C162.048 44.5076 162.656 45.0562 163.082 45.7375C163.509 46.4188 163.737 47.2058 163.741 48.0099ZM154.619 42.2255H156.826C157.034 42.247 157.244 42.2254 157.443 42.1621C157.643 42.0987 157.827 41.995 157.984 41.8573C158.141 41.7196 158.269 41.5508 158.358 41.3617C158.447 41.1725 158.497 40.9668 158.504 40.7576V39.8645C158.504 38.9722 157.738 38.5119 156.826 38.5119H154.619V42.2255ZM159.151 47.9495C159.151 47.7308 159.107 47.5142 159.022 47.3127C158.937 47.1111 158.813 46.9286 158.657 46.7757C158.501 46.6229 158.315 46.5029 158.112 46.4228C157.909 46.3427 157.692 46.3041 157.474 46.3092H154.619V50.4822H157.474C157.692 50.4874 157.909 50.4489 158.112 50.3688C158.316 50.2887 158.501 50.1688 158.657 50.0159C158.813 49.8631 158.937 49.6805 159.022 49.4789C159.107 49.2772 159.151 49.0606 159.151 48.8419V47.9495Z" fill="#25396F"/>
<path d="M178.741 48.0099V50.1968C178.734 50.7783 178.613 51.3528 178.384 51.8874C178.156 52.422 177.824 52.9063 177.409 53.3125C176.994 53.7188 176.502 54.039 175.964 54.255C175.425 54.471 174.849 54.5785 174.268 54.5714H165V34.4259H173.621C174.796 34.4177 175.927 34.8765 176.765 35.7017C177.603 36.5269 178.081 37.6513 178.093 38.8287V40.6706C178.087 41.3482 177.924 42.0151 177.618 42.6193C177.312 43.2235 176.87 43.7486 176.328 44.1536C177.048 44.5076 177.656 45.0562 178.082 45.7375C178.509 46.4188 178.737 47.2058 178.741 48.0099ZM169.619 42.2255H171.826C172.034 42.247 172.244 42.2254 172.443 42.1621C172.643 42.0987 172.827 41.995 172.984 41.8573C173.141 41.7196 173.269 41.5508 173.358 41.3617C173.447 41.1725 173.497 40.9668 173.504 40.7576V39.8645C173.504 38.9722 172.738 38.5119 171.826 38.5119H169.619V42.2255ZM174.151 47.9495C174.151 47.7308 174.107 47.5142 174.022 47.3127C173.937 47.1111 173.813 46.9286 173.657 46.7757C173.501 46.6229 173.315 46.5029 173.112 46.4228C172.909 46.3427 172.692 46.3041 172.474 46.3092H169.619V50.4822H172.474C172.692 50.4874 172.909 50.4489 173.112 50.3688C173.316 50.2887 173.501 50.1688 173.657 50.0159C173.813 49.8631 173.937 49.6805 174.022 49.4789C174.107 49.2772 174.151 49.0606 174.151 48.8419V47.9495Z" fill="#25396F"/>
</svg>
